<svg width="273" height="186" viewBox="0 0 273 186" fill="none" xmlns="http://www.w3.org/2000/svg">
<path d="M5.06 2.08C3.99961 1.77072 2.88928 2.37961 2.58 3.44C2.27072 4.50039 2.87961 5.61072 3.94 5.92L5.06 2.08ZM160.5 49.5001L162.076 48.2689L161.679 47.7607L161.06 47.5801L160.5 49.5001ZM263.756 183.985C264.852 184.12 265.85 183.34 265.985 182.244L268.18 164.378C268.315 163.282 267.536 162.284 266.439 162.149C265.343 162.015 264.345 162.794 264.21 163.89L262.259 179.771L246.378 177.82C245.282 177.685 244.284 178.464 244.149 179.561C244.015 180.657 244.794 181.655 245.89 181.79L263.756 183.985ZM3.94 5.92L9.51143 7.545L10.6314 3.705L5.06 2.08L3.94 5.92ZM20.6543 10.795L31.7972 14.045L32.9172 10.205L21.7743 6.95501L20.6543 10.795ZM42.94 17.295L54.0829 20.545L55.2029 16.705L44.06 13.455L42.94 17.295ZM65.2258 23.795L76.3686 27.0451L77.4886 23.2051L66.3458 19.955L65.2258 23.795ZM87.5115 30.2951L98.6543 33.5451L99.7743 29.7051L88.6315 26.4551L87.5115 30.2951ZM109.797 36.7951L120.94 40.0451L122.06 36.2051L110.917 32.9551L109.797 36.7951ZM132.083 43.2951L143.226 46.5451L144.346 42.7051L133.203 39.4551L132.083 43.2951ZM154.369 49.7951L159.94 51.4201L161.06 47.5801L155.489 45.9551L154.369 49.7951ZM158.924 50.7313L162.62 55.4634L165.773 53.0011L162.076 48.2689L158.924 50.7313ZM170.013 64.9277L177.406 74.392L180.558 71.9296L173.166 62.4653L170.013 64.9277ZM184.799 83.8562L192.192 93.3205L195.344 90.8582L187.951 81.3939L184.799 83.8562ZM199.585 102.785L206.977 112.249L210.13 109.787L202.737 100.322L199.585 102.785ZM214.37 121.713L221.763 131.178L224.915 128.715L217.523 119.251L214.37 121.713ZM229.156 140.642L236.549 150.106L239.701 147.644L232.308 138.18L229.156 140.642ZM243.942 159.57L251.335 169.035L254.487 166.572L247.094 157.108L243.942 159.57ZM258.727 178.499L262.424 183.231L265.576 180.769L261.88 176.037L258.727 178.499ZM5.62 0.160001C3.49923 -0.458559 1.27856 0.759226 0.66 2.88C0.0414398 5.00077 1.25922 7.22144 3.38 7.84L5.62 0.160001ZM160.5 49.5001L163.652 47.0378L162.858 46.0213L161.62 45.6601L160.5 49.5001ZM263.512 185.97C265.705 186.239 267.701 184.68 267.97 182.488L272.361 146.757C272.63 144.564 271.071 142.568 268.879 142.299C266.686 142.029 264.69 143.588 264.421 145.781L260.518 177.542L228.757 173.639C226.564 173.37 224.568 174.929 224.299 177.121C224.029 179.314 225.588 181.31 227.781 181.579L263.512 185.97ZM3.38 7.84L8.95143 9.465L11.1914 1.78501L5.62 0.160001L3.38 7.84ZM20.0943 12.715L31.2372 15.965L33.4772 8.28502L22.3343 5.03501L20.0943 12.715ZM42.38 19.215L53.5229 22.465L55.7629 14.785L44.62 11.535L42.38 19.215ZM64.6658 25.715L75.8086 28.9651L78.0486 21.2851L66.9058 18.035L64.6658 25.715ZM86.9515 32.2151L98.0943 35.4651L100.334 27.7851L89.1915 24.5351L86.9515 32.2151ZM109.237 38.7151L120.38 41.9651L122.62 34.2851L111.477 31.0351L109.237 38.7151ZM131.523 45.2151L142.666 48.4651L144.906 40.7851L133.763 37.5351L131.523 45.2151ZM153.809 51.7151L159.38 53.3401L161.62 45.6601L156.049 44.0351L153.809 51.7151ZM157.348 51.9625L161.044 56.6946L167.349 51.7699L163.652 47.0378L157.348 51.9625ZM168.437 66.1589L175.83 75.6231L182.134 70.6984L174.742 61.2342L168.437 66.1589ZM183.223 85.0874L190.616 94.5517L196.92 89.627L189.527 80.1627L183.223 85.0874ZM198.009 104.016L205.401 113.48L211.706 108.556L204.313 99.0913L198.009 104.016ZM212.794 122.945L220.187 132.409L226.492 127.484L219.099 118.02L212.794 122.945ZM227.58 141.873L234.973 151.337L241.277 146.413L233.884 136.948L227.58 141.873ZM242.366 160.802L249.758 170.266L256.063 165.341L248.67 155.877L242.366 160.802ZM257.151 179.73L260.848 184.462L267.152 179.538L263.456 174.805L257.151 179.73Z" fill="#5A5A5A"/>
</svg>
