<svg width="259" height="215" viewBox="0 0 259 215" fill="none" xmlns="http://www.w3.org/2000/svg">
<path d="M256.41 5.38093C257.034 4.4699 256.802 3.22504 255.891 2.60047C254.98 1.97591 253.735 2.20814 253.111 3.11918L256.41 5.38093ZM162.876 138.279L163.555 140.16L164.161 139.941L164.526 139.409L162.876 138.279ZM2.89592 194.441C2.426 195.441 2.85542 196.632 3.85504 197.102L20.1449 204.76C21.1445 205.23 22.3358 204.8 22.8057 203.801C23.2756 202.801 22.8462 201.61 21.8466 201.14L7.36675 194.333L14.1737 179.853C14.6436 178.853 14.2142 177.662 13.2145 177.192C12.2149 176.722 11.0236 177.152 10.5537 178.151L2.89592 194.441ZM253.111 3.11918L249.829 7.90591L253.128 10.1677L256.41 5.38093L253.111 3.11918ZM243.266 17.4794L236.703 27.0528L240.002 29.3146L246.565 19.7411L243.266 17.4794ZM230.14 36.6263L223.577 46.1998L226.876 48.4615L233.439 38.8881L230.14 36.6263ZM217.013 55.7732L210.45 65.3467L213.749 67.6084L220.313 58.035L217.013 55.7732ZM203.887 74.9201L197.324 84.4936L200.623 86.7554L207.186 77.1819L203.887 74.9201ZM190.761 94.0671L184.198 103.641L187.497 105.902L194.06 96.3288L190.761 94.0671ZM177.635 113.214L171.071 122.787L174.371 125.049L180.934 115.476L177.635 113.214ZM164.508 132.361L161.227 137.148L164.526 139.409L167.808 134.623L164.508 132.361ZM162.198 136.397L156.549 138.433L157.906 142.196L163.555 140.16L162.198 136.397ZM145.251 142.506L133.953 146.578L135.31 150.341L146.608 146.269L145.251 142.506ZM122.656 150.65L111.358 154.723L112.714 158.486L124.012 154.413L122.656 150.65ZM100.06 158.795L88.7619 162.868L90.1183 166.631L101.416 162.558L100.06 158.795ZM77.464 166.94L66.1661 171.012L67.5225 174.775L78.8204 170.703L77.464 166.94ZM54.8682 175.085L43.5703 179.157L44.9267 182.92L56.2246 178.848L54.8682 175.085ZM32.2724 183.23L20.9745 187.302L22.3309 191.065L33.6288 186.993L32.2724 183.23ZM9.67663 191.374L4.02771 193.411L5.3841 197.174L11.033 195.137L9.67663 191.374ZM258.059 6.51181C259.309 4.68974 258.844 2.20003 257.022 0.950895C255.2 -0.298239 252.71 0.166223 251.461 1.9883L258.059 6.51181ZM162.876 138.279L164.233 142.042L165.446 141.604L166.176 140.54L162.876 138.279ZM1.08594 193.59C0.146105 195.59 1.00493 197.972 3.00418 198.912L35.5838 214.228C37.5831 215.167 39.9657 214.309 40.9055 212.309C41.8454 210.31 40.9865 207.927 38.9873 206.988L10.0276 193.374L23.6414 164.414C24.5813 162.415 23.7224 160.032 21.7232 159.092C19.7239 158.153 17.3413 159.011 16.4015 161.011L1.08594 193.59ZM251.461 1.9883L248.18 6.77503L254.778 11.2985L258.059 6.51181L251.461 1.9883ZM241.616 16.3485L235.053 25.922L241.652 30.4455L248.215 20.872L241.616 16.3485ZM228.49 35.4954L221.927 45.0689L228.525 49.5924L235.088 40.0189L228.49 35.4954ZM215.364 54.6423L208.801 64.2158L215.399 68.7393L221.962 59.1659L215.364 54.6423ZM202.238 73.7893L195.674 83.3627L202.273 87.8862L208.836 78.3128L202.238 73.7893ZM189.111 92.9362L182.548 102.51L189.147 107.033L195.71 97.4597L189.111 92.9362ZM175.985 112.083L169.422 121.657L176.02 126.18L182.583 116.607L175.985 112.083ZM162.859 131.23L159.577 136.017L166.176 140.54L169.457 135.754L162.859 131.23ZM161.52 134.516L155.871 136.552L158.584 144.078L164.233 142.042L161.52 134.516ZM144.573 140.624L133.275 144.697L135.988 152.223L147.286 148.15L144.573 140.624ZM121.977 148.769L110.679 152.841L113.392 160.367L124.69 156.295L121.977 148.769ZM99.3816 156.914L88.0837 160.986L90.7965 168.512L102.094 164.44L99.3816 156.914ZM76.7858 165.058L65.4879 169.131L68.2007 176.657L79.4986 172.584L76.7858 165.058ZM54.19 173.203L42.8921 177.276L45.6049 184.802L56.9028 180.729L54.19 173.203ZM31.5942 181.348L20.2963 185.42L23.0091 192.946L34.307 188.874L31.5942 181.348ZM8.99843 189.493L3.34951 191.529L6.0623 199.055L11.7112 197.019L8.99843 189.493Z" fill="#5A5A5A"/>
</svg>
