<svg width="550" height="576" viewBox="0 0 550 576" fill="none" xmlns="http://www.w3.org/2000/svg">
<path fill-rule="evenodd" clip-rule="evenodd" d="M274.765 0.0504327C309.201 -0.90789 341.103 11.979 373.899 22.5219C407.288 33.2554 437.544 52.1918 463.795 75.4489C490.186 98.829 512.698 126.727 527.591 158.684C542.364 190.382 549.063 225.316 549.936 260.276C550.787 294.379 543.097 327.791 532.621 360.256C522.319 392.182 508.076 422.456 488.755 449.879C469.147 477.71 445.463 502.106 418.26 522.577C389.903 543.917 360.246 566.011 325.412 572.802C290.541 579.6 254.623 570.625 220.383 561.152C187.391 552.024 157.18 536.205 128.064 518.203C98.9394 500.195 69.4427 481.772 48.3595 454.789C27.1788 427.682 13.8645 395.177 5.80491 361.733C-2.13477 328.787 -0.222348 294.853 1.66207 261.016C3.58695 226.453 4.73689 191.551 17.0836 159.211C29.8366 125.807 47.3773 92.8978 74.6663 69.7943C101.807 46.8165 137.69 37.8706 171.895 28.1435C204.539 18.8604 240.84 0.994526 274.765 0.0504327Z" fill="black"/>
</svg>
