<svg width="122" height="127" viewBox="0 0 122 127" fill="none" xmlns="http://www.w3.org/2000/svg">
<path fill-rule="evenodd" clip-rule="evenodd" d="M60.9486 1.01101C68.462 0.801917 75.4223 3.6136 82.5779 5.91388C89.8627 8.25572 96.464 12.3873 102.192 17.4616C107.949 22.5627 112.861 28.6495 116.111 35.6219C119.334 42.5378 120.796 50.1599 120.986 57.7876C121.172 65.2281 119.494 72.5182 117.208 79.6014C114.96 86.5669 111.853 93.1721 107.637 99.1555C103.359 105.228 98.1917 110.55 92.2566 115.017C86.0697 119.673 79.5989 124.493 71.9988 125.975C64.3907 127.458 56.554 125.5 49.0833 123.433C41.8851 121.442 35.2937 117.99 28.9412 114.062C22.5867 110.133 16.151 106.114 11.551 100.227C6.92979 94.3124 4.02486 87.2204 2.2664 79.9236C0.534111 72.7354 0.951366 65.3315 1.36251 57.9489C1.78248 50.4079 2.03338 42.793 4.72722 35.7369C7.50967 28.4488 11.3367 21.2686 17.2907 16.2278C23.2123 11.2145 31.0414 9.26267 38.5043 7.1404C45.6266 5.115 53.5469 1.21699 60.9486 1.01101Z" fill="#232323" stroke="white"/>
</svg>
