
<svg width="170" height="56" viewBox="0 0 170 56" fill="#050505" xmlns="http://www.w3.org/2000/svg">
 <path fill-rule="evenodd" clip-rule="evenodd" fill="#050505">
	<animate repeatCount="indefinite" fill="freeze" attributeName="d" dur="2s"
	
	values="M148.531 10.3006C113.731 0.70062 50 -4.30064 20.0312 7.5C-5.5 17.5532 -5.49997 43 20.0312 51.3006C40.9532 58.1028 113.031 56.8006 148.531 51.3006C169.5 44.5 183.331 19.9006 148.531 10.3006Z;
	
	
	M135 7.99988C97.5 -2.34484 50 -3.5 22.0308 12.5C-3.50043 22.5532 -8.5002 52.4999 22.0308 56.3006C42.9528 63.1028 115.031 61.8006 150.531 56.3006C176.5 52.2771 169.8 17.5999 135 7.99988Z;
	
	M148.531 10.3006C113.731 0.70062 50 -4.30064 20.0312 7.5C-5.5 17.5532 -5.49997 43 20.0312 51.3006C40.9532 58.1028 113.031 56.8006 148.531 51.3006C169.5 44.5 183.331 19.9006 148.531 10.3006Z"/>
 </path>
 <path d="M52.293 35.3359C52.2539 35.349 52.2279 35.3359 52.2148 35.2969C52.2018 35.2578 52.1953 35.2188 52.1953 35.1797C52.2083 35.1406 52.2279 35.1081 52.2539 35.082C52.293 35.056 52.3385 35.056 52.3906 35.082C52.2214 34.8737 52.1107 34.6849 52.0586 34.5156C52.0195 34.3464 51.9349 34.138 51.8047 33.8906C51.8438 33.8516 51.8698 33.7995 51.8828 33.7344C51.8958 33.6562 51.9154 33.5846 51.9414 33.5195C51.9544 33.4544 51.974 33.4089 52 33.3828C52.0391 33.3438 52.0846 33.3503 52.1367 33.4023C52.1107 33.2591 52.1107 33.1419 52.1367 33.0508C52.1628 32.9596 52.1888 32.875 52.2148 32.7969C52.2539 32.7188 52.2799 32.6406 52.293 32.5625C52.306 32.4844 52.2865 32.3932 52.2344 32.2891C52.4818 31.9505 52.6445 31.5859 52.7227 31.1953C52.8008 30.7917 52.8464 30.4271 52.8594 30.1016C52.9766 29.9844 53.0742 29.8281 53.1523 29.6328C53.2435 29.4375 53.3086 29.2357 53.3477 29.0273C53.3867 28.819 53.4062 28.6172 53.4062 28.4219C53.4062 28.2135 53.3802 28.0508 53.3281 27.9336C53.3411 27.8815 53.3672 27.8555 53.4062 27.8555C53.4583 27.8424 53.5169 27.8424 53.582 27.8555C53.6732 27.3346 53.7318 26.7552 53.7578 26.1172C53.7969 25.4792 53.862 24.8672 53.9531 24.2812C54.0573 23.6823 54.2201 23.1615 54.4414 22.7188C54.6628 22.263 55.0143 21.9701 55.4961 21.8398C55.5872 22.1654 55.7044 22.4518 55.8477 22.6992C56.0039 22.9466 56.1667 23.1875 56.3359 23.4219C56.5182 23.6562 56.7005 23.8906 56.8828 24.125C57.0651 24.3594 57.2344 24.6198 57.3906 24.9062C57.3776 25.2057 57.3451 25.5508 57.293 25.9414C57.2539 26.332 57.1953 26.7292 57.1172 27.1328C57.0521 27.5365 56.9805 27.9271 56.9023 28.3047C56.8372 28.6823 56.7721 29.0013 56.707 29.2617C56.7201 29.3268 56.7656 29.3724 56.8438 29.3984C56.9219 29.4115 56.9349 29.4831 56.8828 29.6133C57.2604 29.5221 57.651 29.4375 58.0547 29.3594C58.4714 29.2682 58.875 29.1836 59.2656 29.1055C59.6693 29.0143 60.0599 28.9102 60.4375 28.793C60.8281 28.6758 61.1927 28.5326 61.5312 28.3633C61.6094 27.7383 61.707 27.1198 61.8242 26.5078C61.9414 25.8958 61.9544 25.2773 61.8633 24.6523C61.9414 24.5872 62.0065 24.5091 62.0586 24.418C62.1107 24.3268 62.1888 24.2682 62.293 24.2422C62.2148 23.9427 62.1823 23.6302 62.1953 23.3047C62.2083 22.9661 62.2604 22.6536 62.3516 22.3672C62.4557 22.0807 62.6055 21.8333 62.8008 21.625C62.9961 21.4036 63.237 21.2604 63.5234 21.1953C63.6927 21.4427 63.8424 21.7096 63.9727 21.9961C64.1029 22.2826 64.2331 22.5755 64.3633 22.875C64.4935 23.1615 64.6302 23.4349 64.7734 23.6953C64.9297 23.9557 65.125 24.1771 65.3594 24.3594C65.3984 24.8151 65.431 25.2839 65.457 25.7656C65.4831 26.2344 65.5026 26.7227 65.5156 27.2305C65.3984 27.8164 65.2617 28.3893 65.1055 28.9492C64.9622 29.4961 64.8581 30.082 64.793 30.707C64.6888 30.8242 64.6042 30.9674 64.5391 31.1367C64.474 31.293 64.4089 31.4557 64.3438 31.625C64.2917 31.7812 64.2266 31.9375 64.1484 32.0938C64.0703 32.25 63.9727 32.3802 63.8555 32.4844C63.9076 32.6667 63.9141 32.8424 63.875 33.0117C63.849 33.168 63.8945 33.3568 64.0117 33.5781C64.0378 33.9818 63.9857 34.3203 63.8555 34.5938C63.7383 34.8542 63.569 35.082 63.3477 35.2773C63.1393 35.4596 62.8919 35.6094 62.6055 35.7266C62.332 35.8307 62.0586 35.9284 61.7852 36.0195C61.6549 35.9414 61.5312 35.8633 61.4141 35.7852C61.3099 35.694 61.1797 35.6289 61.0234 35.5898L61.1211 35.4141C60.8607 35.1536 60.6328 34.8802 60.4375 34.5938C60.2552 34.2943 60.1706 33.9557 60.1836 33.5781C60.1836 33.5651 60.1966 33.4805 60.2227 33.3242C60.2487 33.1549 60.2747 32.9792 60.3008 32.7969C60.3398 32.6146 60.3724 32.4453 60.3984 32.2891C60.4375 32.1198 60.457 32.0286 60.457 32.0156C60.0924 32.0547 59.7148 32.1393 59.3242 32.2695C58.9336 32.3997 58.5495 32.5495 58.1719 32.7188C57.8073 32.875 57.4622 33.0443 57.1367 33.2266C56.8242 33.3958 56.5703 33.5391 56.375 33.6562C56.375 33.6953 56.3424 33.806 56.2773 33.9883C56.2122 34.1706 56.1341 34.3659 56.043 34.5742C55.9518 34.7695 55.8477 34.9453 55.7305 35.1016C55.6263 35.2578 55.5156 35.3294 55.3984 35.3164C55.4245 35.3815 55.4505 35.4336 55.4766 35.4727C55.5026 35.4987 55.5026 35.5573 55.4766 35.6484C55.2552 35.7135 55.0534 35.7982 54.8711 35.9023C54.7018 36.0065 54.526 36.0911 54.3438 36.1562C54.1615 36.2344 53.9596 36.2669 53.7383 36.2539C53.5299 36.2539 53.276 36.1758 52.9766 36.0195C52.9766 35.9284 52.9375 35.8503 52.8594 35.7852C52.7812 35.707 52.6966 35.6419 52.6055 35.5898C52.5273 35.5378 52.4557 35.4922 52.3906 35.4531C52.3255 35.4141 52.293 35.375 52.293 35.3359ZM67 35.3359C66.8958 35.2318 66.8177 35.1081 66.7656 34.9648C66.7266 34.8216 66.6224 34.7044 66.4531 34.6133C66.4271 34.418 66.388 34.1966 66.3359 33.9492C66.2969 33.6888 66.2513 33.4284 66.1992 33.168C66.1602 32.8945 66.1276 32.6276 66.1016 32.3672C66.0885 32.0938 66.1016 31.8464 66.1406 31.625C66.1667 31.5078 66.2057 31.3971 66.2578 31.293C66.3229 31.1888 66.3815 31.0911 66.4336 31C66.4987 30.8958 66.5443 30.7917 66.5703 30.6875C66.6094 30.5833 66.6159 30.4792 66.5898 30.375C66.668 30.362 66.7135 30.3229 66.7266 30.2578C66.7526 30.1797 66.8177 30.1536 66.9219 30.1797C67.013 29.8932 67.1107 29.6263 67.2148 29.3789C67.319 29.1315 67.4297 28.8906 67.5469 28.6562C67.6641 28.4219 67.7812 28.1875 67.8984 27.9531C68.0286 27.7057 68.1458 27.4323 68.25 27.1328C68.0286 26.9245 67.8659 26.7031 67.7617 26.4688C67.6706 26.2214 67.599 25.974 67.5469 25.7266C67.4948 25.4792 67.4557 25.2318 67.4297 24.9844C67.4036 24.724 67.3516 24.4635 67.2734 24.2031C67.4297 23.9688 67.6185 23.7799 67.8398 23.6367C68.0612 23.4805 68.3021 23.3568 68.5625 23.2656C68.8359 23.1615 69.1289 23.0833 69.4414 23.0312C69.7539 22.9661 70.0859 22.8945 70.4375 22.8164C71.0625 22.6211 71.6224 22.4714 72.1172 22.3672C72.612 22.25 73.0938 22.1589 73.5625 22.0938C74.0312 22.0156 74.5195 21.9505 75.0273 21.8984C75.5352 21.8333 76.1211 21.7422 76.7852 21.625C76.7982 21.6641 76.8177 21.6836 76.8438 21.6836C76.8828 21.6836 76.9284 21.6836 76.9805 21.6836C77.0195 21.7747 77.0911 21.8203 77.1953 21.8203C77.1953 21.7812 77.1888 21.7487 77.1758 21.7227C77.1758 21.6836 77.1758 21.651 77.1758 21.625C77.2018 21.625 77.2344 21.6315 77.2734 21.6445C77.3255 21.6576 77.3646 21.6706 77.3906 21.6836C77.4297 21.6966 77.4622 21.6966 77.4883 21.6836C77.5143 21.6576 77.5208 21.612 77.5078 21.5469C77.6641 21.8203 77.8659 22.0482 78.1133 22.2305C78.3607 22.3997 78.6341 22.5495 78.9336 22.6797C78.9466 22.7969 78.9466 22.8815 78.9336 22.9336C78.9336 22.9857 78.9271 23.0378 78.9141 23.0898C78.901 23.1289 78.8945 23.181 78.8945 23.2461C78.8945 23.2982 78.9076 23.3763 78.9336 23.4805C78.7253 23.832 78.4844 24.1055 78.2109 24.3008C77.9505 24.4961 77.6706 24.6458 77.3711 24.75C77.0716 24.8542 76.7526 24.9323 76.4141 24.9844C76.0885 25.0365 75.75 25.0951 75.3984 25.1602C75.0599 25.2122 74.7148 25.2904 74.3633 25.3945C74.0117 25.4987 73.6667 25.6549 73.3281 25.8633C73.224 25.8242 73.1263 25.8112 73.0352 25.8242C72.957 25.8242 72.8724 25.8372 72.7812 25.8633C72.6901 25.8893 72.5859 25.9154 72.4688 25.9414C72.3646 25.9674 72.2344 25.9674 72.0781 25.9414C71.974 26.0326 71.8503 26.0977 71.707 26.1367C71.5768 26.1758 71.4401 26.2148 71.2969 26.2539C71.362 26.3971 71.388 26.5404 71.375 26.6836C71.375 26.8268 71.3945 26.9505 71.4336 27.0547C71.9805 27.1068 72.5859 27.1068 73.25 27.0547C73.9141 26.9896 74.5651 26.944 75.2031 26.918C75.2161 26.9831 75.2096 27.0286 75.1836 27.0547C75.1576 27.0807 75.1445 27.1263 75.1445 27.1914C75.2617 27.2695 75.3724 27.3672 75.4766 27.4844C75.5807 27.6016 75.6849 27.7188 75.7891 27.8359C75.9062 27.9401 76.0234 28.0312 76.1406 28.1094C76.2578 28.1745 76.3945 28.2005 76.5508 28.1875C76.6159 28.3177 76.6615 28.4544 76.6875 28.5977C76.7135 28.7409 76.694 28.8906 76.6289 29.0469C76.3685 29.2161 76.1146 29.3919 75.8672 29.5742C75.6198 29.7435 75.3594 29.8997 75.0859 30.043C74.8255 30.1862 74.5391 30.3034 74.2266 30.3945C73.9141 30.4857 73.5755 30.5247 73.2109 30.5117C73.1458 30.5117 73.0872 30.5117 73.0352 30.5117C72.9961 30.5117 72.944 30.4857 72.8789 30.4336C72.7487 30.4987 72.5729 30.5247 72.3516 30.5117C72.1432 30.4857 71.9674 30.5052 71.8242 30.5703C71.6419 30.5052 71.4271 30.4727 71.1797 30.4727C70.9453 30.4727 70.737 30.4401 70.5547 30.375C70.3203 30.7135 70.099 31.0716 69.8906 31.4492C69.6823 31.8138 69.5 32.2044 69.3438 32.6211C69.8776 32.6992 70.3203 32.7318 70.6719 32.7188C71.0234 32.7057 71.3555 32.6797 71.668 32.6406C71.9805 32.6016 72.2995 32.5625 72.625 32.5234C72.9635 32.4844 73.3737 32.4714 73.8555 32.4844C74.181 32.3281 74.5521 32.224 74.9688 32.1719C75.3984 32.1068 75.7956 32.0156 76.1602 31.8984C76.2904 31.9375 76.401 32.0156 76.4922 32.1328C76.5833 32.237 76.668 32.3477 76.7461 32.4648C76.8372 32.569 76.9284 32.6602 77.0195 32.7383C77.1107 32.8164 77.2279 32.8424 77.3711 32.8164C77.4362 32.8815 77.4753 32.9596 77.4883 33.0508C77.5143 33.1419 77.5339 33.2266 77.5469 33.3047C77.5729 33.3828 77.6055 33.4479 77.6445 33.5C77.6836 33.5391 77.7552 33.5521 77.8594 33.5391C77.612 34.0469 77.332 34.4375 77.0195 34.7109C76.7201 34.9844 76.375 35.1992 75.9844 35.3555C75.6068 35.4987 75.1771 35.6094 74.6953 35.6875C74.2266 35.7526 73.6992 35.8372 73.1133 35.9414C72.9701 35.9674 72.8464 35.9674 72.7422 35.9414C72.651 35.9023 72.5534 35.8828 72.4492 35.8828C72.0846 35.9479 71.6484 36.013 71.1406 36.0781C70.6458 36.1432 70.1445 36.1693 69.6367 36.1562C69.1289 36.1432 68.6406 36.0781 68.1719 35.9609C67.7031 35.8438 67.3125 35.6354 67 35.3359ZM79.5586 35.2773C79.5065 35.2253 79.4609 35.1667 79.4219 35.1016C79.3828 35.0234 79.3503 34.9258 79.3242 34.8086C79.1419 34.5872 78.9987 34.3333 78.8945 34.0469C78.7904 33.7604 78.7188 33.4674 78.6797 33.168C78.6406 32.8555 78.6341 32.543 78.6602 32.2305C78.6862 31.918 78.7318 31.625 78.7969 31.3516C78.8359 31.2214 78.8685 31.0846 78.8945 30.9414C78.9596 30.694 79.0247 30.4531 79.0898 30.2188C79.1549 29.9714 79.2526 29.7695 79.3828 29.6133C79.3307 29.4701 79.3372 29.3138 79.4023 29.1445C79.4674 28.9753 79.5326 28.819 79.5977 28.6758C79.6237 28.6367 79.6432 28.6042 79.6562 28.5781C79.6693 28.5391 79.6823 28.5065 79.6953 28.4805C79.8516 28.0247 80.0013 27.5885 80.1445 27.1719C80.3008 26.7422 80.4505 26.332 80.5938 25.9414C80.8542 25.2253 81.1016 24.5221 81.3359 23.832C81.5833 23.1419 81.8047 22.4062 82 21.625C82.1042 21.5469 82.1953 21.4948 82.2734 21.4688C82.2995 21.4557 82.332 21.4427 82.3711 21.4297C82.4102 21.4167 82.4557 21.4102 82.5078 21.4102C82.7812 21.5534 83.1003 21.6901 83.4648 21.8203C83.8424 21.9375 84.1615 21.9961 84.4219 21.9961L84.7539 22.2891C84.9232 22.4844 85.0664 22.6927 85.1836 22.9141C85.3138 23.1224 85.3529 23.3958 85.3008 23.7344C85.2227 23.8516 85.1576 23.9232 85.1055 23.9492C85.0273 24.2487 84.9427 24.5156 84.8516 24.75C84.7604 24.9714 84.6693 25.1862 84.5781 25.3945C84.474 25.6289 84.3763 25.8633 84.2852 26.0977C84.194 26.332 84.1159 26.6185 84.0508 26.957C83.9727 27.0482 83.9206 27.1263 83.8945 27.1914C83.8815 27.2565 83.862 27.3216 83.8359 27.3867C83.8099 27.4648 83.7773 27.5495 83.7383 27.6406C83.6992 27.7188 83.6406 27.7904 83.5625 27.8555C83.5104 28.2591 83.4323 28.5911 83.3281 28.8516C83.224 29.099 83.1198 29.3464 83.0156 29.5938C82.8333 30.0495 82.6641 30.5052 82.5078 30.9609C82.3516 31.4036 82.2604 31.9115 82.2344 32.4844C82.3906 32.4453 82.5339 32.4258 82.6641 32.4258C82.8333 32.4258 82.9961 32.4518 83.1523 32.5039C83.6211 32.2695 84.1289 32.1263 84.6758 32.0742C85.2357 32.0221 85.7891 31.9896 86.3359 31.9766C86.7917 31.9766 87.2148 31.957 87.6055 31.918C87.7357 32.0091 87.8203 32.0612 87.8594 32.0742C87.8984 32.0742 87.9635 32.0742 88.0547 32.0742C88.0938 32.0742 88.1328 32.0742 88.1719 32.0742C88.2109 32.0742 88.263 32.0807 88.3281 32.0938C88.5104 32.276 88.6862 32.4062 88.8555 32.4844C89.0247 32.5495 89.207 32.6146 89.4023 32.6797C89.5716 32.7448 89.7344 32.8164 89.8906 32.8945C90.0599 32.9596 90.2227 33.0508 90.3789 33.168L90.5547 34.1641C90.6589 34.3073 90.7044 34.4049 90.6914 34.457C90.6914 34.5612 90.6654 34.6523 90.6133 34.7305L90.6523 34.9844C90.4049 35.0365 90.2422 35.0951 90.1641 35.1602C90.0859 35.2122 90.0013 35.2839 89.9102 35.375C89.7669 35.388 89.6302 35.3945 89.5 35.3945C89.2396 35.3945 88.9727 35.4336 88.6992 35.5117C88.3086 35.3685 87.8789 35.2969 87.4102 35.2969C87.2279 35.2969 87.0391 35.3034 86.8438 35.3164C86.6615 35.3294 86.4792 35.349 86.2969 35.375C86.1016 35.401 85.9062 35.4271 85.7109 35.4531C85.5156 35.4661 85.3203 35.4727 85.125 35.4727C84.9688 35.4987 84.8581 35.5182 84.793 35.5312C84.7279 35.5443 84.6628 35.5638 84.5977 35.5898C84.1549 35.7331 83.6732 35.8763 83.1523 36.0195C82.6445 36.1628 82.1302 36.2344 81.6094 36.2344C80.8411 36.2344 80.2227 36.0391 79.7539 35.6484C79.7018 35.5312 79.6628 35.4531 79.6367 35.4141C79.6107 35.375 79.5846 35.3294 79.5586 35.2773ZM92.2148 35.2773C92.1628 35.2253 92.1172 35.1667 92.0781 35.1016C92.0391 35.0234 92.0065 34.9258 91.9805 34.8086C91.7982 34.5872 91.6549 34.3333 91.5508 34.0469C91.4466 33.7604 91.375 33.4674 91.3359 33.168C91.2969 32.8555 91.2904 32.543 91.3164 32.2305C91.3424 31.918 91.388 31.625 91.4531 31.3516C91.4922 31.2214 91.5247 31.0846 91.5508 30.9414C91.6159 30.694 91.681 30.4531 91.7461 30.2188C91.8112 29.9714 91.9089 29.7695 92.0391 29.6133C91.987 29.4701 91.9935 29.3138 92.0586 29.1445C92.1237 28.9753 92.1888 28.819 92.2539 28.6758C92.2799 28.6367 92.2995 28.6042 92.3125 28.5781C92.3255 28.5391 92.3385 28.5065 92.3516 28.4805C92.5078 28.0247 92.6576 27.5885 92.8008 27.1719C92.957 26.7422 93.1068 26.332 93.25 25.9414C93.5104 25.2253 93.7578 24.5221 93.9922 23.832C94.2396 23.1419 94.4609 22.4062 94.6562 21.625C94.7604 21.5469 94.8516 21.4948 94.9297 21.4688C94.9557 21.4557 94.9883 21.4427 95.0273 21.4297C95.0664 21.4167 95.112 21.4102 95.1641 21.4102C95.4375 21.5534 95.7565 21.6901 96.1211 21.8203C96.4987 21.9375 96.8177 21.9961 97.0781 21.9961L97.4102 22.2891C97.5794 22.4844 97.7227 22.6927 97.8398 22.9141C97.9701 23.1224 98.0091 23.3958 97.957 23.7344C97.8789 23.8516 97.8138 23.9232 97.7617 23.9492C97.6836 24.2487 97.599 24.5156 97.5078 24.75C97.4167 24.9714 97.3255 25.1862 97.2344 25.3945C97.1302 25.6289 97.0326 25.8633 96.9414 26.0977C96.8503 26.332 96.7721 26.6185 96.707 26.957C96.6289 27.0482 96.5768 27.1263 96.5508 27.1914C96.5378 27.2565 96.5182 27.3216 96.4922 27.3867C96.4661 27.4648 96.4336 27.5495 96.3945 27.6406C96.3555 27.7188 96.2969 27.7904 96.2188 27.8555C96.1667 28.2591 96.0885 28.5911 95.9844 28.8516C95.8802 29.099 95.776 29.3464 95.6719 29.5938C95.4896 30.0495 95.3203 30.5052 95.1641 30.9609C95.0078 31.4036 94.9167 31.9115 94.8906 32.4844C95.0469 32.4453 95.1901 32.4258 95.3203 32.4258C95.4896 32.4258 95.6523 32.4518 95.8086 32.5039C96.2773 32.2695 96.7852 32.1263 97.332 32.0742C97.8919 32.0221 98.4453 31.9896 98.9922 31.9766C99.4479 31.9766 99.8711 31.957 100.262 31.918C100.392 32.0091 100.477 32.0612 100.516 32.0742C100.555 32.0742 100.62 32.0742 100.711 32.0742C100.75 32.0742 100.789 32.0742 100.828 32.0742C100.867 32.0742 100.919 32.0807 100.984 32.0938C101.167 32.276 101.342 32.4062 101.512 32.4844C101.681 32.5495 101.863 32.6146 102.059 32.6797C102.228 32.7448 102.391 32.8164 102.547 32.8945C102.716 32.9596 102.879 33.0508 103.035 33.168L103.211 34.1641C103.315 34.3073 103.361 34.4049 103.348 34.457C103.348 34.5612 103.322 34.6523 103.27 34.7305L103.309 34.9844C103.061 35.0365 102.898 35.0951 102.82 35.1602C102.742 35.2122 102.658 35.2839 102.566 35.375C102.423 35.388 102.286 35.3945 102.156 35.3945C101.896 35.3945 101.629 35.4336 101.355 35.5117C100.965 35.3685 100.535 35.2969 100.066 35.2969C99.8841 35.2969 99.6953 35.3034 99.5 35.3164C99.3177 35.3294 99.1354 35.349 98.9531 35.375C98.7578 35.401 98.5625 35.4271 98.3672 35.4531C98.1719 35.4661 97.9766 35.4727 97.7812 35.4727C97.625 35.4987 97.5143 35.5182 97.4492 35.5312C97.3841 35.5443 97.319 35.5638 97.2539 35.5898C96.8112 35.7331 96.3294 35.8763 95.8086 36.0195C95.3008 36.1628 94.7865 36.2344 94.2656 36.2344C93.4974 36.2344 92.8789 36.0391 92.4102 35.6484C92.3581 35.5312 92.319 35.4531 92.293 35.4141C92.2669 35.375 92.2409 35.3294 92.2148 35.2773ZM108.465 36.0781C107.892 36.1562 107.371 36.1302 106.902 36C106.434 35.8698 106.01 35.668 105.633 35.3945C105.268 35.1211 104.949 34.7956 104.676 34.418C104.415 34.0404 104.201 33.6367 104.031 33.207C103.914 32.3216 103.947 31.5208 104.129 30.8047C104.311 30.0755 104.578 29.4049 104.93 28.793C105.281 28.181 105.678 27.6081 106.121 27.0742C106.577 26.5404 107.013 26.026 107.43 25.5312C107.521 25.5703 107.592 25.5703 107.645 25.5312C107.71 25.4922 107.762 25.4401 107.801 25.375C107.853 25.3099 107.905 25.2448 107.957 25.1797C108.022 25.1146 108.094 25.069 108.172 25.043C108.224 24.9258 108.289 24.8281 108.367 24.75C108.458 24.6719 108.549 24.6003 108.641 24.5352C108.745 24.457 108.836 24.3789 108.914 24.3008C109.005 24.2227 109.083 24.125 109.148 24.0078C109.279 23.9818 109.389 23.9362 109.48 23.8711C109.585 23.806 109.676 23.7344 109.754 23.6562C109.845 23.5781 109.936 23.5065 110.027 23.4414C110.118 23.3763 110.229 23.3242 110.359 23.2852V23.0312C110.646 22.901 110.854 22.7578 110.984 22.6016C111.115 22.4453 111.271 22.2435 111.453 21.9961C111.596 21.9831 111.707 21.9766 111.785 21.9766C111.876 21.9766 112.013 21.9635 112.195 21.9375C112.312 21.7161 112.423 21.5534 112.527 21.4492C112.632 21.3451 112.781 21.2279 112.977 21.0977C113.172 21.2018 113.38 21.2669 113.602 21.293C113.823 21.306 114.025 21.4036 114.207 21.5859C114.22 21.7422 114.266 21.8659 114.344 21.957C114.422 22.0352 114.507 22.1133 114.598 22.1914C114.689 22.2565 114.78 22.3281 114.871 22.4062C114.962 22.4844 115.021 22.5951 115.047 22.7383C115.112 22.7383 115.151 22.7253 115.164 22.6992C115.19 22.6732 115.236 22.6667 115.301 22.6797C115.327 22.7839 115.353 22.8685 115.379 22.9336C115.405 22.9987 115.431 23.0573 115.457 23.1094C115.496 23.1615 115.529 23.2201 115.555 23.2852C115.594 23.3503 115.626 23.4284 115.652 23.5195C115.587 23.6758 115.529 23.8451 115.477 24.0273C115.424 24.1966 115.32 24.3138 115.164 24.3789C115.164 24.4831 115.203 24.5417 115.281 24.5547C115.359 24.5547 115.405 24.6003 115.418 24.6914C115.431 24.8086 115.411 24.9062 115.359 24.9844C115.724 25.5964 116.056 26.2409 116.355 26.918C116.655 27.582 116.993 28.2201 117.371 28.832C117.345 29.0143 117.352 29.1966 117.391 29.3789C117.443 29.5482 117.501 29.7174 117.566 29.8867C117.645 30.056 117.716 30.2253 117.781 30.3945C117.846 30.5638 117.892 30.7331 117.918 30.9023C117.944 31.1237 117.944 31.3646 117.918 31.625C117.892 31.8724 117.84 32.1133 117.762 32.3477C117.684 32.582 117.579 32.8034 117.449 33.0117C117.319 33.207 117.169 33.3568 117 33.4609C116.792 33.7214 116.531 33.9362 116.219 34.1055C115.906 34.2617 115.62 34.4505 115.359 34.6719C115.177 34.776 114.982 34.8542 114.773 34.9062C114.565 34.9453 114.35 34.9909 114.129 35.043C113.96 35.1471 113.758 35.2513 113.523 35.3555C113.289 35.4466 113.048 35.5312 112.801 35.6094C112.553 35.6875 112.306 35.7526 112.059 35.8047C111.811 35.8438 111.59 35.8503 111.395 35.8242C110.926 35.9935 110.47 36.1107 110.027 36.1758C109.585 36.2409 109.064 36.2083 108.465 36.0781ZM108.719 28.9688C108.589 29.2682 108.432 29.5417 108.25 29.7891C108.081 30.0234 107.911 30.2643 107.742 30.5117C107.573 30.7591 107.423 31.026 107.293 31.3125C107.176 31.5859 107.111 31.9115 107.098 32.2891C107.358 32.5104 107.664 32.6471 108.016 32.6992C108.38 32.7383 108.751 32.7448 109.129 32.7188C109.507 32.6797 109.884 32.6276 110.262 32.5625C110.639 32.4974 110.978 32.4648 111.277 32.4648C111.277 32.3477 111.329 32.2891 111.434 32.2891C111.98 32.237 112.488 32.0872 112.957 31.8398C113.426 31.5794 113.914 31.319 114.422 31.0586C114.487 30.9023 114.572 30.7656 114.676 30.6484C114.78 30.5312 114.839 30.362 114.852 30.1406C114.786 30.0234 114.741 29.9258 114.715 29.8477C114.702 29.7695 114.695 29.6523 114.695 29.4961C114.357 29.0273 114.064 28.5195 113.816 27.9727C113.569 27.4128 113.283 26.8854 112.957 26.3906C112.931 26.4557 112.879 26.5208 112.801 26.5859C112.723 26.651 112.638 26.638 112.547 26.5469C112.508 26.6771 112.449 26.7682 112.371 26.8203C112.293 26.8594 112.202 26.8789 112.098 26.8789C112.007 26.8789 111.909 26.8594 111.805 26.8203C111.714 26.7812 111.629 26.7292 111.551 26.6641C111.095 27.0286 110.639 27.3802 110.184 27.7188C109.741 28.0573 109.337 28.4544 108.973 28.9102C108.908 28.9492 108.868 28.9622 108.855 28.9492C108.842 28.9362 108.797 28.9427 108.719 28.9688Z" fill="white"/>
</svg>