<svg width="74" height="78" viewBox="0 0 74 78" fill="none" xmlns="http://www.w3.org/2000/svg">
<g clip-path="url(#clip0_563_9)">
<path d="M51.5815 8.57579C31.5727 8.57579 3.33179 9.45916 3.33179 35.6054C3.33179 49.8496 17.8964 70.3504 31.661 73.6986C47.2287 77.4853 70.1667 64.3928 70.1667 47.0196C70.1667 31.4134 47.3493 12.884 37.822 3.35669" stroke="#FFF9F9" stroke-width="6" stroke-linecap="round" stroke-linejoin="round"/>
<path class="port_Path--Accent-Arrow" d="M51.5815 8.57579C31.5727 8.57579 3.33179 9.45916 3.33179 35.6054C3.33179 49.8496 17.8964 70.3504 31.661 73.6986C47.2287 77.4853 70.1667 64.3928 70.1667 47.0196C70.1667 31.4134 47.3493 12.884 37.822 3.35669" stroke="#03EA0C" stroke-width="6" stroke-linecap="round" stroke-linejoin="round"/>
<path d="M15.2864 41.5695C17.7783 41.5695 20.2907 41.6585 22.7819 41.5695C24.5166 41.5076 26.1987 40.7616 27.9216 40.4987C30.4946 40.1063 32.9926 39.9543 35.4599 39.0425C37.4476 38.3079 40.7992 38.8712 42.8697 38.8712C44.4688 38.8712 46.0678 38.8712 47.6668 38.8712" stroke="#131313" stroke-width="6" stroke-linecap="round" stroke-linejoin="round"/>
<path d="M38.8008 27.6923C41.7147 30.6062 45.6807 32.5028 48.0524 35.8731C48.6555 36.7302 49.6028 37.4363 50.1297 38.3145C51.1318 39.9847 49.2061 41.9269 48.2665 43.0901C46.1572 45.7017 44.5674 48.2473 41.7134 50.2001C39.7812 51.5221 37.4624 52.2506 36.1025 54.2905" stroke="#131313" stroke-width="6" stroke-linecap="round" stroke-linejoin="round"/>
</g>
<defs>
<clipPath id="clip0_563_9">
<rect width="74" height="77.5" fill="white"/>
</clipPath>
</defs>
</svg>
